<?xml version="1.0" encoding="UTF-8" standalone="no"?>
<!-- Created with Inkscape (http://www.inkscape.org/) -->

<svg
   xmlns:dc="http://purl.org/dc/elements/1.1/"
   xmlns:cc="http://creativecommons.org/ns#"
   xmlns:rdf="http://www.w3.org/1999/02/22-rdf-syntax-ns#"
   xmlns:svg="http://www.w3.org/2000/svg"
   xmlns="http://www.w3.org/2000/svg"
   xmlns:sodipodi="http://sodipodi.sourceforge.net/DTD/sodipodi-0.dtd"
   xmlns:inkscape="http://www.inkscape.org/namespaces/inkscape"
   width="744.09448819"
   height="1052.3622047"
   id="svg2"
   version="1.1"
   inkscape:version="0.48.4 r9939"
   sodipodi:docname="New document 1">
  <defs
     id="defs4" />
  <sodipodi:namedview
     id="base"
     pagecolor="#ffffff"
     bordercolor="#666666"
     borderopacity="1.0"
     inkscape:pageopacity="0.0"
     inkscape:pageshadow="2"
     inkscape:zoom="0.98994949"
     inkscape:cx="351.81326"
     inkscape:cy="785.99422"
     inkscape:document-units="px"
     inkscape:current-layer="layer1"
     showgrid="false"
     inkscape:window-width="1395"
     inkscape:window-height="860"
     inkscape:window-x="4"
     inkscape:window-y="0"
     inkscape:window-maximized="0" />
  <metadata
     id="metadata7">
    <rdf:RDF>
      <cc:Work
         rdf:about="">
        <dc:format>image/svg+xml</dc:format>
        <dc:type
           rdf:resource="http://purl.org/dc/dcmitype/StillImage" />
        <dc:title></dc:title>
      </cc:Work>
    </rdf:RDF>
  </metadata>
  <g
     inkscape:label="Layer 1"
     inkscape:groupmode="layer"
     id="layer1">
    <path
       style="fill:none;stroke:#000000;stroke-width:1px;stroke-linecap:butt;stroke-linejoin:miter;stroke-opacity:1"
       d="m 232.33509,199.79343 c -2.41652,-12.08259 -2.02031,-6.66766 -2.02031,-16.16244 0,-3.36717 -0.60234,-6.78866 0,-10.10152 0.7619,-4.19048 3.00761,-7.98982 4.04061,-12.12183 0.99351,-3.97404 1.28753,-8.09156 2.02031,-12.12183 1.22853,-6.75694 2.37494,-13.54039 4.04061,-20.20305 6.48042,-25.92171 1.15201,-3.45604 8.08122,-24.24366 2.56302,-7.689065 1.12214,-7.332395 4.04061,-14.14214 1.77954,-4.152274 4.04061,-8.08122 6.06091,-12.121831 1.34687,-2.69374 2.2901,-5.630505 4.04061,-8.08122 2.21424,-3.099937 5.38748,-5.38748 8.08122,-8.08122 0.0606,-0.06056 7.2652,-7.673208 8.08122,-8.081221 0.53841,-0.269204 11.20786,0 12.12183,0 2.39729,0 14.2017,-0.392149 16.16244,0 1.47661,0.295321 2.61204,1.544115 4.04061,2.020305 1.27776,0.425918 2.76286,-0.425917 4.04061,0 1.42858,0.476191 2.57973,1.655084 4.04061,2.020306 1.30666,0.326663 2.79008,-0.500215 4.04061,0 2.25444,0.901775 3.88916,2.954728 6.06092,4.04061 0.60234,0.301169 1.41797,-0.30117 2.0203,0 0.85184,0.425917 1.16847,1.594387 2.02031,2.020305 0.60234,0.301169 1.54411,-0.476191 2.0203,0 0.4762,0.47619 -0.47619,1.544114 0,2.020305 1.0648,1.064794 2.78768,1.185012 4.04062,2.020305 0.79242,0.528286 1.16846,1.594387 2.0203,2.020305 0.60234,0.301169 1.54411,-0.47619 2.02031,0 1.06479,1.064794 1.24555,2.749358 2.0203,4.04061 1.24925,2.082083 2.48618,4.195594 4.04061,6.060916 13.38334,13.383335 1.4851,0.20735 8.08122,10.101525 0.52829,0.792429 1.59439,1.16847 2.02031,2.020305 0.95238,1.904762 1.22939,4.083642 2.0203,6.060915 0.55926,1.39814 1.46105,2.64247 2.02031,4.04061 2.422,6.055 2.12489,7.43715 4.04061,14.14214 1.64471,5.7565 3.13835,7.82633 4.04061,14.14213 0.28571,2 -0.28572,4.06092 0,6.06092 0.39267,2.74873 1.6759,5.32602 2.0203,8.08122 0.33412,2.67294 0,5.38748 0,8.08122 0,7.40778 0,14.81557 0,22.22335 0,2.69374 -0.29747,5.40396 0,8.08122 4.19593,37.76333 -0.15582,-9.01616 4.04061,16.16244 0.33214,1.99282 0,4.04061 0,6.06092 0,4.04061 0,8.08122 0,12.12183 0,0.67344 0,1.34687 0,2.02031 0,0.67343 -0.47619,1.54411 0,2.0203 0.47619,0.47619 1.48156,-0.40406 2.02031,0 6.73435,5.05076 4.48956,5.61196 10.10152,10.10153 1.89603,1.51682 4.54409,2.14458 6.06092,4.04061 1.33034,1.66293 0.92464,4.2348 2.0203,6.06091 6.06092,10.10153 2.02031,0 6.06092,6.06092 4.01973,6.02959 0.77071,1.83325 2.0203,8.08122 3.43493,17.17464 0.10157,-5.75621 6.06092,12.12183 0.63887,1.91663 -0.39622,4.07984 0,6.06091 0.29532,1.47661 1.65508,2.57973 2.0203,4.04061 0.32667,1.30666 -0.37001,2.74557 0,4.04061 0.29203,1.0221 5.55948,13.15379 6.06092,16.16244 0.33213,1.99282 -0.28572,4.06092 0,6.06092 0.39268,2.74874 1.34687,5.38748 2.0203,8.08122 0.67344,2.69374 1.25751,5.41141 2.02031,8.08122 0.58504,2.04765 1.6702,3.9603 2.0203,6.06092 0.77499,4.6499 -0.66666,9.47546 0,14.14213 1.04322,7.30252 6.86017,10.85641 8.08122,18.18275 0.77499,4.6499 -0.66666,9.47547 0,14.14213 0.30117,2.10819 1.67021,3.9603 2.02031,6.06092 0.33214,1.99281 -0.49,4.10093 0,6.06091 0.23099,0.92395 1.78932,1.09636 2.0203,2.02031 0.98,3.91997 -0.66427,8.1362 0,12.12183 2.91161,17.46966 1.1543,-7.93764 6.06092,14.14213 0.73044,3.287 0,6.73435 0,10.10153 0,2.69374 0,5.38748 0,8.08122 0,3.36718 0,6.73435 0,10.10153 0,2.0203 -0.33214,4.06809 0,6.06091 0.3501,2.10061 1.60266,3.97268 2.0203,6.06092 0.26415,1.32071 0,2.69374 0,4.04061 0,3.36717 0,6.73435 0,10.10152 0,1.34687 -0.26414,2.7199 0,4.04061 0.41765,2.08824 1.67021,3.9603 2.02031,6.06092 0.33214,1.99281 -0.25059,4.05621 0,6.06091 0.42592,3.40734 1.67862,6.68471 2.0203,10.10153 0.33505,3.35046 0,6.73435 0,10.10152 0,8.75466 0,17.50931 0,26.26397 0,3.36717 0,6.73435 0,10.10152 0,0.67344 0.4762,1.54412 0,2.02031 -0.47619,0.47619 -1.71913,-0.60234 -2.0203,0 -0.90351,1.80702 0,4.04061 0,6.06092 0,5.34766 0.25633,2.38962 -2.02031,8.08122 -0.7909,1.97727 -0.74255,4.35724 -2.0203,6.06091 -0.90351,1.20468 -3.20532,0.76737 -4.04061,2.02031 -0.74711,1.12066 0.95238,3.08823 0,4.04061 -0.95238,0.95238 -3.08823,0.95238 -4.04061,0 -0.95238,-0.95238 0,-2.69374 0,-4.04061 0,-2.02031 0.25059,-4.05622 0,-6.06092 -0.42592,-3.40734 -1.40604,-6.72305 -2.02031,-10.10152 -0.73277,-4.03028 -0.94248,-8.16983 -2.0203,-12.12184 -0.95421,-3.49877 -3.32938,-6.54539 -4.04061,-10.10152 -3.59165,-17.95827 2.15499,-3.23249 0,-16.16244 -0.3501,-2.10061 -1.5038,-3.99491 -2.02031,-6.06092 -0.62441,-2.49764 0.50096,-5.57644 0,-8.08122 0.46362,-4.05706 -3.16104,-6.58324 -4.04061,-10.10152 -0.32666,-1.30666 0.32667,-2.73396 0,-4.04061 -0.36522,-1.46089 -1.77274,-2.55525 -2.0203,-4.04061 0,-21.12512 1.20468,0.7781 -2.02031,-12.12183 -0.81666,-3.26664 0.66036,-6.79974 0,-10.10153 -0.29532,-1.4766 -1.65508,-2.57972 -2.0203,-4.04061 -0.32667,-1.30665 0.32666,-2.73395 0,-4.04061 -0.73044,-2.92177 -3.31017,-5.15945 -4.04061,-8.08122 -0.32667,-1.30666 0.32666,-2.73395 0,-4.04061 -0.36522,-1.46089 -1.65509,-2.57972 -2.02031,-4.04061 -0.32666,-1.30666 0.32667,-2.73395 0,-4.04061 -0.36522,-1.46089 -1.65508,-2.57972 -2.0203,-4.04061 -0.49,-1.95998 0.63887,-4.14429 0,-6.06092 -0.47619,-1.42857 -1.72499,-2.564 -2.02031,-4.04061 -0.39621,-1.98107 0,-4.04061 0,-6.06091 0,-0.67344 0.30117,-1.41797 0,-2.02031 -0.42591,-0.85183 -1.71913,-1.11679 -2.0203,-2.0203 -0.003,-0.009 0.002,-6.05899 0,-6.06092 -0.47619,-0.47619 -1.54412,0.47619 -2.02031,0 -2.69374,-2.69374 4.28572,-1.9386 -2.0203,-4.04061 -5.68387,-1.89462 -6.06092,4.29042 -6.06092,-4.04061 0,-0.67343 0,1.34687 0,2.02031 0,1.34687 0,2.69374 0,4.04061 0,7.71732 -0.42592,0.31663 2.02031,10.10152 0.39795,1.59181 0,6.76335 0,8.08122 0,15.41218 -0.90351,-1.59372 2.0203,10.10153 0.40657,1.62629 0,15.54725 0,16.16244 0,9.42809 0,18.85618 0,28.28427 0,30.97801 0,61.95602 0,92.93404 0,10.77496 0,21.54992 0,32.32488 0,4.04061 0,8.08122 0,12.12183 0,1.34687 0.32667,2.73395 0,4.04061 -0.36522,1.46088 -1.65508,2.57972 -2.0203,4.04061 -0.0915,0.36579 0.12578,9.97574 0,10.10152 -0.47619,0.47619 -1.54412,-0.47619 -2.02031,0 -0.47619,0.47619 0,1.34687 0,2.02031 0,0.67343 0,1.34687 0,2.0203 0,0.67344 0,1.34687 0,2.02031 0,0.67343 0.30117,1.41797 0,2.0203 -0.42592,0.85184 -1.78932,1.09636 -2.0203,2.02031 -0.11012,0.44049 0.45962,9.18229 0,10.10152 -0.42592,0.85184 -1.59439,1.16847 -2.02031,2.02031 -0.30117,0.60234 0,1.34687 0,2.0203 0,0.67344 0,1.34687 0,2.02031 0,2.4155 0.43953,10.80325 0,12.12183 -0.47619,1.42857 -1.65508,2.57972 -2.0203,4.04061 -0.52321,2.09282 0,5.76461 0,8.08122 0,6.06092 0,12.12183 0,18.18275 0,2.69374 0.29747,5.40395 0,8.08122 -0.37921,3.41285 -1.67863,6.68471 -2.02031,10.10152 -0.33504,3.35047 0,6.73435 0,10.10153 0,6.73435 0,13.4687 0,20.20305 0,4.04061 0,8.08122 0,12.12183 0,1.34687 -0.42592,2.76286 0,4.04061 0.30117,0.90351 1.71914,1.1168 2.02031,2.0203 0.37125,1.11376 0,10.40731 0,12.12184 0,2.69374 0.26803,5.40084 0,8.08122 -1.15821,11.58202 -4.90272,22.76316 -6.06092,34.34518 -0.26804,2.68037 0,5.38748 0,8.08122 0,6.06092 0,12.12183 0,18.18275 0,1.80559 0.32191,9.45771 0,10.10152 -0.42592,0.85184 -1.71913,1.1168 -2.0203,2.02031 -0.42592,1.27775 0,2.69374 0,4.04061 0,3.36717 0,6.73435 0,10.10152 0,1.34687 0.16706,2.70415 0,4.04061 -1.44194,11.53552 -4.24781,22.86216 -6.06092,34.34519 -0.84678,5.36297 -0.95551,10.83847 -2.0203,16.16244 -0.9615,4.80748 -2.63184,9.44622 -4.04061,14.14214 -0.61194,2.03977 -1.60266,3.97268 -2.02031,6.06091 -0.26414,1.32072 0.60234,2.83594 0,4.04061 -0.30117,0.60234 -1.54411,0.47619 -2.0203,0 -0.2449,-0.24489 0.20736,-3.21114 0,-4.04061 -0.5165,-2.066 -1.67021,-3.9603 -2.02031,-6.06091 -0.33214,-1.99282 0,-4.04061 0,-6.06092 0,-4.04061 0.50118,-8.11242 0,-12.12183 -0.42592,-3.40734 -1.53468,-6.70218 -2.0203,-10.10152 -0.19048,-1.33334 0.26414,-2.7199 0,-4.04061 -0.8353,-4.17647 -3.34041,-7.92061 -4.04061,-12.12183 -0.33214,-1.99282 0.28571,-4.06092 0,-6.06092 -0.39268,-2.74874 -1.67591,-5.32602 -2.02031,-8.08122 -0.33412,-2.67294 0.38095,-5.41455 0,-8.08122 -0.60234,-4.21637 -3.43827,-7.90546 -4.04061,-12.12183 -0.38095,-2.66667 0.44285,-5.42413 0,-8.08122 -0.24756,-1.48536 -1.77274,-2.55525 -2.0203,-4.04061 -0.44285,-2.65709 0,-5.38748 0,-8.08122 0,-8.08122 0,-16.16244 0,-24.24366 0,-30.30458 0,-60.60916 0,-90.91373 0,-11.4484 0,-22.89679 0,-34.34519 0,-4.04061 0.44621,-8.10593 0,-12.12183 -0.23518,-2.11656 -1.71914,-3.95273 -2.02031,-6.06091 -0.7619,-5.33334 0.66824,-10.81657 0,-16.16245 -0.3444,-2.7552 -1.6759,-5.32601 -2.0203,-8.08122 -0.58471,-4.67764 0.77498,-9.49223 0,-14.14213 -0.35011,-2.10061 -1.67021,-3.9603 -2.02031,-6.06092 -0.87335,-5.2401 0.75145,-10.90226 0,-16.16244 -0.39268,-2.74873 -1.6759,-5.32602 -2.0203,-8.08122 -0.33412,-2.67294 0.65332,-5.46791 0,-8.08122 -0.73045,-2.92177 -3.17521,-5.19654 -4.04062,-8.08122 -1.17707,-3.92359 -0.72492,-8.23569 -2.0203,-12.12183 -0.76783,-2.3035 -2.95473,-3.88915 -4.04061,-6.06091 -0.95238,-1.90477 -1.5038,-3.99491 -2.02031,-6.06092 -1.23622,-4.9449 4.12225,1.13261 -2.0203,-8.08122 -0.74711,-1.12066 -3.08823,0.95238 -4.04061,0 -1.0648,-1.06479 -1.54412,-2.61204 -2.02031,-4.04061 -0.21295,-0.63888 0.47619,-1.54411 0,-2.0203 -0.47619,-0.4762 -1.41796,0.30116 -2.0203,0 -0.85184,-0.42592 -1.34687,-1.34687 -2.02031,-2.02031 -0.67343,-0.67344 -1.59438,-1.16847 -2.0203,-2.02031 -0.30117,-0.60233 0.47619,-1.54411 0,-2.0203 -0.47619,-0.47619 -1.54412,0.47619 -2.02031,0 -0.47619,-0.47619 0.47619,-1.54411 0,-2.02031 -0.47619,-0.47619 -1.54411,0.4762 -2.0203,0 -0.47619,-0.47619 0.47619,-1.54411 0,-2.0203 -0.47619,-0.47619 -1.41797,0.30117 -2.02031,0 -0.85183,-0.42592 -1.34687,-1.34687 -2.0203,-2.02031 -0.67344,-0.67343 -1.16847,-1.59438 -2.02031,-2.0203 -0.60234,-0.30117 -2.0203,0.67343 -2.0203,0 0,-0.67344 2.69374,0 2.0203,0 -1.34687,0 -2.83593,-0.60234 -4.04061,0 -0.60234,0.30117 0,1.34687 0,2.0203 0,4.04061 0,8.08122 0,12.12184 0,2.0203 0,4.04061 0,6.06091 0,1.34687 0.26415,2.7199 0,4.04061 -0.41764,2.08823 -1.6702,3.9603 -2.0203,6.06092 -0.33214,1.99281 0,4.04061 0,6.06091 0,2.69374 0,5.38748 0,8.08122 0,10.66667 0,5.49578 0,16.16244 0,12.12183 0,24.24366 0,36.36549 0,4.71405 0,9.42809 0,14.14214 0,2.69374 0.33412,5.40828 0,8.08122 -0.3444,2.7552 -1.62763,5.33248 -2.02031,8.08122 -0.57143,4 0.57143,8.12183 0,12.12183 -0.78535,5.49747 -3.35181,10.65204 -4.04061,16.16244 -0.66823,5.34588 0.66824,10.81656 0,16.16244 -0.3444,2.7552 -1.34687,5.38748 -2.0203,8.08122 -0.67344,3.36718 -1.6411,6.68867 -2.02031,10.10153 -0.29747,2.67726 0,5.38748 0,8.08122 -0.67343,2.69374 -1.6759,5.32602 -2.0203,8.08122 -0.66824,5.34588 0.7619,10.82911 0,16.16244 -0.30117,2.10818 -1.34687,4.04061 -2.02031,6.06091 0,3.36718 0.37184,6.75495 0,10.10153 -0.61326,5.51932 -3.42735,10.64312 -4.04061,16.16244 -0.37184,3.34658 0.30485,6.74818 0,10.10153 -0.11012,7.60408 -3.29142,14.73149 -4.04061,22.22335 0,23.19915 0.81666,-1.67601 -2.0203,18.18275 -0.28572,2 0.33213,4.0681 0,6.06091 -0.35011,2.10062 -1.71914,3.95273 -2.02031,6.06092 -0.38095,2.66667 0,5.38748 0,8.08122 0,1.34687 0.26414,2.71989 0,4.04061 -0.41764,2.08823 -1.6702,3.9603 -2.0203,6.06091 -0.33214,1.99282 0,4.04061 0,6.06092 0,4.04061 0,8.08122 0,12.12183 0,13.4687 0,26.9374 0,40.4061 0,0.95257 0.0916,10.00996 0,10.10153 -0.47619,0.47619 -1.34687,0 -2.02031,0 -0.67343,0 -1.34687,0 -2.0203,0 -0.67344,0 -1.34687,0 -2.02031,0 -0.67343,0 -1.54411,0.47619 -2.0203,0 -0.64122,-0.64122 -5.67607,-10.96728 -6.06092,-12.12183 -0.21296,-0.63888 0.30117,-1.41797 0,-2.02031 -3.08052,-6.16104 -1.60162,3.69503 -4.04061,-6.06091 -0.65333,-2.61332 0.65333,-5.46791 0,-8.08122 -0.36522,-1.46089 -1.46105,-2.64247 -2.0203,-4.04061 -0.79091,-1.97728 -1.34687,-4.04061 -2.02031,-6.06092 -0.67343,-2.0203 -1.75616,-3.94777 -2.0203,-6.06091 -0.41765,-3.34118 0.33504,-6.75107 0,-10.10153 -0.34169,-3.41682 -1.34687,-6.73435 -2.02031,-10.10153 -0.67343,-3.36717 -1.34687,-6.73435 -2.0203,-10.10152 -0.67344,-3.36718 -1.67863,-6.68471 -2.02031,-10.10153 -0.33505,-3.35046 0,-6.73435 0,-10.10152 -0.67343,-3.36718 -1.59439,-6.69419 -2.0203,-10.10153 -0.25059,-2.0047 0,-4.04061 0,-6.06091 0,-4.04061 0,-8.08122 0,-12.12183 0,-12.12183 0,-24.24366 0,-36.36549 0,-34.34519 0,-68.69038 0,-103.03556 0,-35.69206 0,-71.38412 0,-107.07617 0,-14.14214 0,-28.28428 0,-42.42641 0,-5.38748 -0.35837,-10.78689 0,-16.16244 0.31675,-4.75136 1.62485,-9.39668 2.0203,-14.14214 0.44741,-5.36887 0,-10.77496 0,-16.16244 0,-12.12183 0,-24.24366 0,-36.36549 0,-5.38748 0,-10.77496 0,-16.16244 0,-2.02031 0,-4.04061 0,-6.06092 0,-0.67343 0.30117,-1.41796 0,-2.0203 -0.42592,-0.85184 -1.59439,-1.16847 -2.0203,-2.02031 -0.58342,-1.16683 0.49553,-10.13971 0,-12.12183 -0.36523,-1.46088 -1.54412,-2.61203 -2.02031,-4.04061 -0.21296,-0.63887 0,-1.34687 0,-2.0203 0,-1.34687 0,-2.69374 0,-4.04061 0,-3.36718 0,-6.73435 0,-10.10153 0,-13.4687 0,-26.9374 0,-40.4061 0,-0.67343 0.30117,1.41797 0,2.02031 -3.44888,6.89775 -2.0203,-6.24825 -2.0203,8.08122 0,12.12183 0,24.24366 0,36.36549 0,7.40778 0,14.81557 0,22.22335 0,2.33856 0.45092,8.29784 0,10.10153 -0.36523,1.46089 -1.77275,2.55525 -2.02031,4.04061 -0.8857,5.31418 0.66823,10.81656 0,16.16244 -0.3444,2.7552 -1.62763,5.33248 -2.0203,8.08122 -0.28572,2 0.33213,4.0681 0,6.06092 3.43365,5.46847 -3.08823,5.22407 -4.04062,8.08122 -0.60609,1.81827 0.6061,4.24264 0,6.06091 -0.47619,1.42857 -1.54411,2.61204 -2.0203,4.04061 -0.21296,0.63888 0.21296,1.38143 0,2.02031 -0.47619,1.42857 -1.65508,2.57972 -2.02031,4.04061 -0.32666,1.30665 0.26415,2.71989 0,4.04061 0.46362,4.05706 -3.16104,6.58324 -4.04061,10.10152 -0.32666,1.30666 0,2.69374 0,4.04061 0,0.67344 0.30117,1.41797 0,2.02031 -0.42591,0.85183 -1.71913,1.1168 -2.0203,2.0203 -0.85184,2.55551 0.85183,5.52572 0,8.08122 -0.30117,0.90351 -1.59439,1.16847 -2.02031,2.02031 -0.53321,1.06643 0.58652,5.18114 0,6.06091 -9.197,9.19701 -1.06792,-0.83683 -4.04061,8.08122 -0.30117,0.90351 -1.71913,1.1168 -2.0203,2.02031 -0.003,0.009 0.002,6.05899 0,6.06091 -0.19462,0.19462 -14.05165,0.0278 -14.06092,0 -0.63887,-1.91663 0.39622,-4.07984 0,-6.06091 -0.29532,-1.4766 -1.72498,-2.56401 -2.0203,-4.04061 -0.53542,-2.67708 0,-7.0675 0,-10.10153 0,-4.04061 0,-8.08122 0,-12.12183 0,-2.0203 -0.33214,-4.0681 0,-6.06091 0.3501,-2.10062 1.60266,-3.97268 2.0203,-6.06092 0.26415,-1.32071 -0.22142,-2.71206 0,-4.04061 0.45648,-2.73886 1.56383,-5.34235 2.02031,-8.08122 0.44285,-2.65709 -0.52829,-5.43979 0,-8.08122 0.41765,-2.08823 1.34687,-4.04061 2.0203,-6.06091 0.67344,-2.02031 1.34687,-4.04061 2.02031,-6.06092 0.67343,-2.0203 1.09877,-3.9603 1.44887,-6.06091 2.33702,-14.0221 -3.13048,3.02453 2.59174,-14.14214 0.64598,-1.93795 5.35162,-12.61598 6.06091,-16.16244 0.26415,-1.32072 0,-2.69374 0,-4.04061 0.67344,-1.34687 -0.34491,-2.57973 0.0203,-4.04061 0.32666,-1.30666 -0.26414,-2.7199 0,-4.04061 0.83529,-4.17647 3.43827,-7.90546 4.04061,-12.12183 0.60609,-4.24264 -0.75761,-14.39468 0,-18.18275 0.71123,-3.55613 -2.71576,-6.62791 -1.67368,-10.10152 2.68066,-8.93554 2.7346,-7.47725 2.7346,-16.63162 0,-2.02031 -1.71429,-5.48949 -1.42857,-7.48949 0.39267,-2.74874 -1.89553,-7.46888 -1.55113,-10.22408 0.33412,-2.67294 0,-5.38748 0,-8.08122 0,-6.73435 0,-13.4687 0,-20.20305 0,-3.36718 -0.41765,-6.76035 0,-10.10153 0.26414,-2.11314 1.6702,-3.9603 2.02031,-6.06091 0.33213,-1.99282 0,-4.04061 0,-6.06092 0,-6.06091 0,-12.12183 0,-18.18274 0,-0.67344 0,-1.34687 0,-2.02031 0,-0.67343 -0.4762,-1.54411 0,-2.0203 0.47619,-0.47619 1.71913,0.60234 2.0203,0 0.90351,-1.80702 0,-4.04061 0,-6.06092 0,-4.71404 1.42857,-10.14238 1.42857,-14.85642 0,-6.06092 0.71429,-10.69325 0.71429,-16.75417 0,-3.02699 1.55302,-10.50386 4.28571,-12.12183 16.57834,-9.81572 12.22456,-7.44864 11.55113,-10.81582 z"
       id="path2991"
       inkscape:connector-curvature="0"
       sodipodi:nodetypes="cssssssssscsssssssssssssssscsssssssssssssssssssssssssssssssssssssssssssssssssssssssssssssssssssscsscsssssssssssssscsssssssssssssscssssssssssssssssssssssssssssssssssssscsssssssssssssssssssssssssssssssscscsssssssscssssssssssssssssssscscsscssccssssssssscssssssssssssssscsssssssssssssscsssssssssssssscssssscsssssscssccsssssssssssssscssssssssssssssssssssssc" />
    <path
       style="fill:#000000"
       d="m 363.3596,937.26078 c -0.33501,-1.25007 -0.61531,-6.24189 -0.6229,-11.09293 -0.0154,-9.84044 -1.53294,-21.17982 -3.754,-28.05048 -1.55219,-4.80155 -2.89563,-12.74804 -4.26944,-25.25382 -0.45775,-4.16688 -1.42047,-8.93985 -2.13937,-10.6066 -2.73624,-6.34382 -3.25083,-19.65134 -4.02332,-104.04571 -0.43734,-47.78022 -1.2842,-91.87338 -1.8819,-97.9848 -1.34068,-13.70822 -2.71759,-28.55947 -4.12083,-44.44671 -1.90159,-21.52965 -2.59677,-26.20425 -4.39774,-29.57211 -0.97298,-1.81948 -2.24377,-5.87615 -2.82398,-9.01483 -0.58022,-3.13867 -2.40356,-8.23394 -4.05187,-11.32281 -1.96739,-3.68679 -2.79513,-6.42019 -2.4095,-7.95667 0.82746,-3.29683 -3.02381,-8.5914 -5.64438,-7.75967 -1.53235,0.48635 -2.05641,0.0103 -2.51548,-2.28504 -0.31894,-1.59467 -1.52689,-3.3315 -2.68435,-3.85962 -1.15745,-0.52813 -2.59622,-1.84265 -3.19724,-2.92116 -1.47115,-2.63987 -5.33708,-6.62537 -6.42662,-6.62537 -0.484,0 -1.9048,-1.09085 -3.15733,-2.42411 -1.25254,-1.33327 -3.0364,-2.27719 -3.96416,-2.09761 -0.92774,0.1796 -2.00314,0.36131 -2.38976,0.40382 -0.98818,0.10864 -1.72372,20.42883 -2.72689,75.33365 -0.89532,49.0021 -1.86043,64.68597 -4.56873,74.24622 -0.86565,3.05571 -1.57929,9.27782 -1.58589,13.82691 -0.007,4.54909 -0.73671,11.36762 -1.62247,15.15229 -1.76954,7.56084 -3.07927,17.92746 -4.50665,35.67056 -1.66036,20.63909 -2.69636,28.68731 -4.35603,33.84011 -0.89474,2.77792 -1.63844,8.46003 -1.65267,12.62691 -0.0142,4.16687 -0.73798,10.53084 -1.60834,14.14213 -0.87037,3.6113 -1.99863,10.65711 -2.50725,15.65737 -0.50862,5.00025 -1.42117,12.72792 -2.02789,17.17259 -2.69645,19.75356 -3.1398,27.31074 -3.57056,60.86169 l -0.45717,35.60788 -3.05914,0 c -2.84874,0 -3.33455,-0.5877 -7.0633,-8.54465 -2.20229,-4.69956 -4.44565,-8.8175 -4.98524,-9.15099 -0.53959,-0.33348 -0.98108,-2.70305 -0.98108,-5.2657 0,-2.70559 -1.12663,-7.44582 -2.68681,-11.30459 -1.78756,-4.42113 -2.94284,-9.68807 -3.45175,-15.73662 -0.42071,-5.00026 -1.74896,-13.63706 -2.95167,-19.1929 -4.4092,-20.368 -4.49601,-24.32047 -4.33745,-197.48482 0.0832,-90.83797 0.4426,-184.44999 0.79872,-208.0267 0.43331,-28.68677 0.30309,-43.55647 -0.39366,-44.95179 -1.60926,-3.22272 -2.24539,-13.72438 -2.74215,-45.26905 -0.28006,-17.78442 -0.83734,-29.04189 -1.43766,-29.04189 -0.53917,0 -0.98031,0.68185 -0.98031,1.51523 0,0.83338 -0.44408,1.51523 -0.98684,1.51523 -0.61766,0 -1.14787,14.4551 -1.41726,38.63833 -0.23673,21.25109 -0.97527,44.09316 -1.6412,50.76017 -0.66592,6.66701 -1.31212,14.96844 -1.43598,18.44764 -0.17846,5.0125 -0.68144,6.75085 -2.42273,8.37311 -1.21816,1.13489 -2.19752,3.27414 -2.19752,4.80012 0,1.51406 -0.90914,5.24013 -2.0203,8.28015 -1.11117,3.04003 -2.02031,6.80192 -2.02031,8.35974 0,1.55784 -0.90914,4.61448 -2.0203,6.79255 -1.11117,2.17807 -2.02031,5.5424 -2.02031,7.47628 0,1.9339 -0.45457,3.79711 -1.01015,4.14048 -0.55559,0.34337 -1.01016,2.61621 -1.01016,5.05076 0,2.43455 -0.45456,4.70739 -1.01015,5.05076 -0.55558,0.34337 -1.01015,2.00941 -1.01015,3.70231 0,2.08027 -0.81883,3.72209 -2.52609,5.06502 -1.86277,1.46525 -2.37178,2.60181 -1.93845,4.32832 0.3232,1.28772 0.0962,2.64501 -0.50437,3.0162 -0.6006,0.37119 -1.09201,2.01178 -1.09201,3.64575 0,2.9517 -0.0383,2.97083 -5.95481,2.97083 l -5.95481,0 -0.73545,-4.29314 c -1.16087,-6.7766 -0.90952,-35.03579 0.36614,-41.16372 0.63611,-3.05571 1.44336,-8.51054 1.7939,-12.12183 0.35053,-3.6113 1.70448,-9.79187 3.00877,-13.73462 1.30428,-3.94275 2.67655,-9.85214 3.04948,-13.13198 0.37293,-3.27985 2.43065,-10.88775 4.57272,-16.90645 2.80223,-7.8736 3.89467,-12.57527 3.89467,-16.76192 0,-3.20035 0.90914,-8.46127 2.02031,-11.69094 2.26135,-6.57272 2.86932,-25.4146 0.98037,-30.38292 -0.78116,-2.05459 -0.62649,-4.14478 0.62155,-8.39952 1.78527,-6.08623 1.52216,-17.05365 -0.61248,-25.53108 -1.47958,-5.87597 0.30791,-76.60276 1.936,-76.60276 0.44215,0 1.34366,-7.61402 2.00335,-16.92005 2.28573,-32.24393 2.07552,-31.40276 8.83847,-35.36802 2.59394,-1.52089 5.83146,-3.69087 7.1945,-4.82221 2.47491,-2.05419 2.47606,-2.06427 0.85976,-7.50694 -2.12928,-7.17008 -2.15035,-22.53372 -0.039,-28.44234 0.86871,-2.43109 2.934,-11.46597 4.58954,-20.07752 3.50454,-18.22941 6.11818,-28.41997 9.45645,-36.87057 1.31685,-3.3335 3.14261,-8.96898 4.05725,-12.523278 0.91465,-3.5543 4.14093,-11.403246 7.16953,-17.442102 4.65932,-9.290405 6.70846,-12.145254 13.31828,-18.554939 l 7.81174,-7.575199 14.64721,0.362509 c 8.05597,0.199379 16.69277,0.916412 19.1929,1.593406 2.50012,0.676993 5.90939,1.49109 7.57614,1.809104 1.66675,0.318013 4.23706,1.426466 5.71178,2.463229 1.47472,1.036763 3.09364,1.885023 3.59759,1.885023 0.50396,0 1.8146,0.795495 2.91255,1.767767 3.23836,2.867692 8.33209,6.313453 9.33291,6.313453 0.51067,0 1.48058,1.33284 2.15534,2.961867 0.67477,1.629027 3.69518,5.812132 6.71203,9.295789 6.74728,7.791312 10.3612,15.286252 15.13132,31.380941 4.89073,16.50167 5.42211,20.86813 6.42935,52.83097 0.83847,26.60785 1.36069,31.81981 3.18826,31.81981 0.49078,0 0.89234,5.17826 0.89234,11.50724 0,11.26523 0.0504,11.51989 2.39525,12.10842 1.31739,0.33064 3.62701,2.21609 5.13249,4.18987 1.50549,1.97378 4.49914,4.75467 6.65258,6.17975 2.51844,1.66663 4.33953,3.87642 5.10434,6.1938 0.65396,1.98151 2.87807,5.25837 4.94247,7.28188 3.26069,3.19614 3.84628,4.49962 4.46053,9.92889 0.48945,4.32614 1.13967,6.24976 2.11253,6.24976 1.9455,0 2.58877,1.31929 3.59873,7.38065 1.6228,9.73935 2.79026,14.3114 5.41387,21.20211 1.43748,3.77546 2.61651,8.32115 2.62006,10.10152 0.004,1.78038 1.36724,8.41202 3.03046,14.73699 2.02902,7.71612 3.02401,13.92044 3.02401,18.85645 0,6.55193 0.40655,8.11147 3.71707,14.25896 3.26671,6.06612 3.816,8.12635 4.53353,17.00395 1.10784,13.70652 1.88855,19.01371 2.96455,20.15255 0.49867,0.5278 0.90668,3.7666 0.90668,7.19733 0,8.0656 0.92635,12.55115 2.59203,12.55115 0.73114,0 1.6971,0.56821 2.14658,1.26269 0.44947,0.69448 1.15072,10.80863 1.55833,22.47589 0.84305,24.13156 2.196,42.45292 3.84165,52.02286 1.58091,9.19349 2.46679,59.599 1.04745,59.599 -0.61595,0 -1.08451,2.01452 -1.08451,4.66265 0,6.12081 -2.95271,14.40199 -5.80838,16.29022 -1.25007,0.82656 -2.27284,2.3597 -2.27284,3.40697 0,1.04726 -0.45457,1.90413 -1.01016,1.90413 -0.55558,0 -1.01015,-2.11731 -1.01015,-4.70514 0,-6.77618 -3.78087,-26.16944 -6.36937,-32.67051 -1.59528,-4.00658 -2.25419,-7.95015 -2.36292,-14.14213 -0.22539,-12.83397 -1.70244,-24.73623 -3.31015,-26.6734 -1.46638,-1.76687 -2.88878,-7.75641 -3.74102,-15.75301 -0.26646,-2.50013 -0.89639,-5.45482 -1.39986,-6.56599 -0.50347,-1.11117 -1.11244,-4.74772 -1.35326,-8.08122 -0.52763,-7.30348 -1.84429,-13.25594 -3.68678,-16.66752 -0.75013,-1.38896 -1.73885,-4.23001 -2.19717,-6.31345 -0.4583,-2.08344 -1.32486,-5.71999 -1.92569,-8.08122 -0.60083,-2.36124 -1.32924,-6.11143 -1.6187,-8.33376 -0.28945,-2.22234 -0.93429,-4.47245 -1.43297,-5.00026 -0.49868,-0.5278 -0.90669,-3.11474 -0.90669,-5.74876 0,-2.63401 -0.45456,-5.07005 -1.01015,-5.41342 -0.55558,-0.34337 -1.01015,-2.18848 -1.01015,-4.10023 0,-1.91176 -0.45457,-3.47592 -1.01015,-3.47592 -0.55559,0 -0.89651,-0.53104 -0.75762,-1.18011 0.33263,-1.55438 -4.31341,-4.01157 -6.56599,-3.4726 -1.2133,0.2903 -1.76777,-0.18105 -1.76777,-1.50277 0,-1.05916 -0.51435,-1.92574 -1.14299,-1.92574 -1.18143,0 -0.8961,5.28778 1.33545,24.74874 1.17813,10.2743 1.47692,193.03259 0.33236,203.2932 -0.38735,3.4724 -1.07268,6.31345 -1.52298,6.31345 -0.78985,0 -1.50218,3.99263 -2.61321,14.64721 -0.28967,2.77792 -0.94485,5.95991 -1.45595,7.07107 -2.65132,5.76424 -6.25713,109.97469 -3.95415,114.27785 1.85645,3.46881 0.5295,26.08886 -2.15524,36.73996 -1.78432,7.07886 -2.25086,12.57654 -2.65745,31.31473 -0.27124,12.50063 -0.90607,23.16027 -1.41073,23.68807 -0.50465,0.52781 -0.91755,5.12512 -0.91755,10.21625 0,5.81378 -1.10411,15.41312 -2.9686,25.8094 -1.63273,9.10404 -3.47342,20.41663 -4.09043,25.13909 -1.18452,9.06599 -5.96024,27.27412 -7.15359,27.27412 -0.38722,0 -0.97813,-1.02278 -1.31313,-2.27284 l 0,0 z"
       id="path2993"
       inkscape:connector-curvature="0" />
    <path
       style="fill:#ffffff;stroke:#000000;stroke-width:1px;stroke-linecap:butt;stroke-linejoin:miter;stroke-opacity:1"
       d="m 270.72088,180.60054 c -1.34168,-2.24133 -4.37992,1.12066 -6.06091,0 -2.95677,-1.97118 -0.20695,-1.42404 -1.01016,-3.03046 -0.21295,-0.42592 -0.79719,-0.58424 -1.01015,-1.01015 -0.47619,-0.95239 -0.6147,-2.04183 -1.01015,-3.03046 -1.4944,-3.73599 -1.07948,-0.41598 -2.02031,-6.06092 -0.11071,-0.66427 0,-1.34687 0,-2.0203 0,-1.34687 0,-2.69374 0,-4.04061 0,-1.01015 0,-2.02031 0,-3.03046 0,-1.01015 -0.1981,-2.03992 0,-3.03046 0.14766,-0.7383 0.82755,-1.28986 1.01016,-2.0203 0.16333,-0.65333 -0.13207,-1.35995 0,-2.02031 -0.23181,-2.02853 1.58052,-3.29162 2.0203,-5.05076 0.16333,-0.65333 -0.37355,-1.45997 0,-2.02031 0.41765,-0.62647 1.34687,-0.67343 2.02031,-1.01015 0.67343,-1.01015 1.56941,-1.90324 2.0203,-3.03046 0.25011,-0.62526 -0.13207,-1.35994 0,-2.0203 0.20883,-1.04412 0.67344,-2.02031 1.01015,-3.03046 0.33672,-1.01015 0.53397,-2.07808 1.01016,-3.03046 0.54294,-1.08588 1.39568,-1.98941 2.0203,-3.03045 0.38738,-0.64563 0.67344,-1.34687 1.01015,-2.02031 0.33672,-0.67343 0.82755,-1.28986 1.01016,-2.0203 1.12989,-4.51957 -2.4105,0.85697 2.0203,-5.05077 1.15806,-1.54407 1.19217,-0.79478 3.03046,-2.0203 0.39621,-0.26414 0.67344,-0.67344 1.01015,-1.01015 1.01016,-1.01016 2.02031,-2.02031 3.03046,-3.03046 0.33672,-0.33672 0.61394,-0.74601 1.01015,-1.01015 0.62647,-0.41765 1.39384,-0.59251 2.02031,-1.01016 0.39621,-0.26414 0.5584,-0.85956 1.01015,-1.01015 0.63888,-0.21296 1.38143,0.21296 2.02031,0 3.15301,-1.051 -0.33672,-0.67343 1.01015,-2.0203 0.23809,-0.2381 0.67343,0 1.01015,0 0.33672,0 1.01015,-0.33672 1.01015,0 0,0.33671 -1.34687,0 -1.01015,0 1.01015,0 2.02031,0 3.03046,0 1.05746,0 5.23946,-0.20537 6.06091,0 0.73045,0.18261 1.28987,0.82754 2.02031,1.01015 0.65333,0.16333 1.35995,-0.13207 2.0203,0 1.04412,0.20882 1.98634,0.80133 3.03046,1.01015 0.66036,0.13207 1.35995,-0.13207 2.02031,0 5.25501,1.051 1.01015,0.67344 5.05076,2.02031 0.63888,0.21295 1.41797,-0.30117 2.0203,0 1.08589,0.54294 1.94458,1.47736 3.03046,2.0203 0.30117,0.15059 0.77206,-0.23809 1.01015,0 0.5324,0.5324 0.47776,1.48791 1.01016,2.02031 0.0647,0.0647 3.85244,1.89486 4.04061,2.0203 0.39621,0.26414 0.61394,0.74601 1.01015,1.01015 0.62647,0.41765 1.48791,0.47776 2.0203,1.01016 1.0648,1.06479 0.95552,2.97581 2.02031,4.04061 0.5324,0.53239 1.48791,0.47775 2.0203,1.01015 2.08795,2.08794 0.5955,1.37182 1.01016,3.03046 0.25825,1.033 0.7519,1.99745 1.01015,3.03045 0.16333,0.65333 0,1.34687 0,2.02031 0,1.01015 0,2.0203 0,3.03046 0,0.67343 -0.21296,1.38143 0,2.0203 0.15058,0.45176 0.79719,0.58424 1.01015,1.01015 0.16096,0.32191 0,4.14797 0,5.05077 0,1.68358 0,3.36717 0,5.05076 0,0.67343 0.16333,1.36698 0,2.0203 -0.18261,0.73045 -0.82754,1.28987 -1.01015,2.02031 -0.16333,0.65333 0.21296,1.38143 0,2.0203 -0.15058,0.45176 -0.85957,0.5584 -1.01015,1.01016 -0.21296,0.63887 0.16333,1.36697 0,2.0203 -1.2195,4.87797 -0.48005,-0.0501 -2.02031,3.03046 -0.31745,0.6349 0.31745,3.40571 0,4.04061 -0.42592,0.85184 -1.49202,1.22788 -2.0203,2.02031 -0.18678,0.28016 0.10648,0.69071 0,1.01015 -0.2381,0.71428 -0.77206,1.30602 -1.01016,2.0203 -0.10647,0.31944 0.10648,0.69072 0,1.01016 -0.23809,0.71428 -0.67343,1.34687 -1.01015,2.0203 -0.33672,0.67344 -0.47775,1.48791 -1.01015,2.02031 -0.5324,0.53239 -1.48791,0.47775 -2.02031,1.01015 -0.53239,0.5324 -0.67343,1.34687 -1.01015,2.0203 -0.33672,0.67344 -0.77206,1.30602 -1.01015,2.02031 -0.10648,0.31944 0.10648,0.69071 0,1.01015 -0.2381,0.71429 -0.77206,1.30602 -1.01015,2.02031 -0.10648,0.31943 0,0.67343 0,1.01015 -0.33672,0.67343 -0.77206,1.30602 -1.01016,2.0203 -0.10648,0.31944 0.15059,0.70899 0,1.01016 -2.31153,4.62307 0.41868,-4.2865 -2.0203,3.03045 -0.10648,0.31944 0.0817,0.68349 0,1.01016 -0.25825,1.033 -0.7519,1.99745 -1.01015,3.03045 -0.0817,0.32667 0.10648,0.69072 0,1.01016 -0.2381,0.71428 -0.82755,1.28986 -1.01016,2.0203 0,6.70051 0.47619,-1.42857 -1.01015,3.03046 -0.002,0.005 9.7e-4,3.02949 0,3.03046 -0.23809,0.23809 -0.67343,0 -1.01015,0 -1.01015,0 -2.02031,0 -3.03046,0 -1.68359,0 -3.36717,0 -5.05076,0 -0.67344,-0.33672 -1.27763,-0.88638 -2.02031,-1.01016 -4.93335,-0.82222 -2.89887,1.07595 -7.07106,-1.01015 -1.08589,-0.54294 -1.94458,-1.47736 -3.03046,-2.0203 -0.30117,-0.15059 -0.67344,0 -1.01015,0 -0.67344,-0.33672 -1.39384,-0.59251 -2.02031,-1.01016 -0.39621,-0.26414 -0.5584,-0.85956 -1.01015,-1.01015 -0.63888,-0.21296 -1.36698,0.16333 -2.02031,0 -0.73044,-0.18261 -1.30602,-0.77206 -2.0203,-1.01015 -0.31944,-0.10648 -0.69072,0.10648 -1.01015,0 -7.31696,-2.43899 1.59261,0.29123 -3.03046,-2.02031 -0.30117,-0.15058 -0.69072,0.10648 -1.01015,0 -0.71429,-0.23809 -1.28987,-0.82754 -2.02031,-1.01015 -0.65333,-0.16333 -1.36698,0.16333 -2.02031,0 -0.73044,-0.18261 -1.30601,-0.77206 -2.0203,-1.01015 -0.31944,-0.10648 -0.70898,0.15058 -1.01015,0 -0.42592,-0.21296 -0.58424,-0.79719 -1.01016,-1.01015 -1.39336,-0.69668 -0.90355,1.22335 -2.0203,-1.01016 -0.30117,-0.60233 0.47619,-1.54411 0,-2.0203 -0.2381,-0.2381 -0.77206,0.23809 -1.01015,0 -0.2381,-0.2381 0,-0.67344 0,-1.01015 0,-0.33672 0,-0.67344 0,-1.01016 0,-3.96185 -0.2898,-2.45086 2.0203,-7.07106 z"
       id="path2995"
       inkscape:connector-curvature="0" />
  </g>
</svg>
